<?xml version="1.0" standalone="no"?>
<!DOCTYPE svg PUBLIC "-//W3C//DTD SVG 20010904//EN"
 "http://www.w3.org/TR/2001/REC-SVG-20010904/DTD/svg10.dtd">
<svg version="1.0" xmlns="http://www.w3.org/2000/svg"
 width="512.000000pt" height="512.000000pt" viewBox="0 0 512.000000 512.000000"
 preserveAspectRatio="xMidYMid meet">

<g transform="translate(0.000000,512.000000) scale(0.100000,-0.100000)"
fill="#000000" stroke="none">
<path d="M1710 3835 c-36 -8 -112 -38 -170 -67 -91 -46 -118 -65 -200 -148
-113 -112 -137 -151 -178 -286 -25 -78 -40 -111 -72 -146 -46 -53 -93 -78
-144 -78 -20 0 -51 -6 -69 -14 -42 -17 -114 -96 -138 -152 l-20 -44 28 -52
c17 -32 75 -99 143 -167 130 -128 207 -191 237 -191 44 0 223 176 223 220 0
10 -13 44 -30 75 -44 84 -39 123 25 194 63 70 136 64 248 -20 28 -22 57 -37
64 -34 7 2 304 -286 676 -658 519 -518 668 -672 685 -709 12 -26 25 -79 28
-118 12 -130 67 -169 236 -170 78 0 89 2 116 25 44 37 56 100 47 243 -4 70
-13 129 -22 146 -26 50 -172 193 -418 410 -146 128 -395 366 -635 606 -217
218 -403 402 -412 409 -15 11 -27 5 -95 -49 -141 -111 -155 -111 -50 -2 55 58
97 109 97 121 0 10 -21 63 -47 117 -46 94 -48 103 -48 185 0 78 2 89 27 121
33 43 111 84 187 98 29 5 112 10 183 10 86 0 127 3 123 10 -11 19 -142 79
-217 101 -95 28 -312 35 -408 14z m-150 -243 c-97 -76 -175 -150 -245 -232
-43 -50 -80 -88 -83 -85 -8 7 58 102 120 173 56 64 199 172 227 172 10 -1 3
-11 -19 -28z m60 -26 c0 -2 -33 -29 -74 -59 -40 -31 -111 -98 -156 -149 -46
-51 -92 -102 -102 -113 -20 -20 -20 -20 -3 15 29 58 123 177 168 212 81 65
167 113 167 94z m-31 -93 c-62 -54 -177 -170 -232 -234 l-37 -44 21 45 c28 57
98 146 145 185 114 92 198 132 103 48z m5 -75 c-48 -46 -94 -88 -103 -94 -9
-7 -38 -39 -65 -73 -27 -34 -51 -59 -53 -57 -11 11 47 98 106 159 61 64 171
147 193 147 5 0 -30 -37 -78 -82z m79 -2 c-64 -56 -165 -157 -208 -210 -21
-26 -41 -43 -43 -37 -12 35 155 218 238 261 53 29 58 24 13 -14z m27 -56 c-25
-21 -48 -39 -51 -40 -3 0 -44 -43 -90 -95 -87 -99 -114 -110 -59 -25 51 80
190 198 235 200 6 0 -10 -18 -35 -40z m70 -14 c0 -1 -27 -24 -60 -50 -33 -26
-87 -81 -122 -123 -34 -42 -64 -71 -66 -64 -5 15 59 110 103 154 49 50 145
105 145 83z m-81 -153 c-63 -65 -115 -115 -117 -111 -6 13 38 80 82 127 40 43
121 101 140 101 5 0 -42 -53 -105 -117z m31 -48 c-58 -57 -106 -102 -108 -100
-7 7 27 61 67 107 42 47 130 112 140 103 3 -3 -42 -53 -99 -110z m-818 -122
c-42 -53 -101 -108 -107 -101 -23 23 75 138 116 138 19 0 18 -3 -9 -37z m1130
-51 c2 -4 23 -25 48 -46 70 -61 289 -265 350 -326 138 -138 356 -345 469 -445
217 -193 385 -356 434 -423 l47 -65 0 -126 c0 -164 -15 -187 -23 -36 -4 73
-12 128 -22 149 -20 42 -259 267 -390 367 -91 70 -339 307 -522 497 -228 238
-456 486 -462 504 -4 11 65 -38 71 -50z m-107 -192 c308 -285 937 -920 968
-976 36 -64 -519 471 -902 871 -227 236 -255 280 -66 105z m-655 -58 c0 -30
-100 -132 -129 -132 -22 0 -10 21 48 80 55 56 81 72 81 52z"/>
<path d="M3024 3826 c-86 -23 -225 -84 -239 -106 -4 -7 38 -10 125 -10 158 0
250 -18 318 -63 67 -45 84 -84 79 -179 -3 -66 -10 -89 -50 -173 -26 -53 -47
-106 -47 -116 0 -12 42 -63 98 -121 104 -109 90 -109 -51 2 -68 54 -80 60 -94
48 -9 -7 -142 -137 -294 -289 -254 -253 -276 -278 -262 -292 15 -15 22 -11 77
46 56 57 247 236 354 332 24 22 60 54 80 72 44 41 56 34 16 -10 -17 -17 -79
-86 -139 -152 -60 -66 -158 -171 -219 -233 l-110 -113 54 -54 53 -54 61 56
c34 31 142 134 241 229 99 95 195 185 214 200 74 61 8 -16 -171 -201 -287
-297 -307 -319 -298 -329 4 -4 148 132 319 303 176 176 316 308 323 306 7 -3
37 12 65 34 112 84 185 90 248 20 64 -71 69 -110 25 -194 -16 -31 -30 -65 -30
-75 0 -44 179 -220 223 -220 30 0 107 63 237 191 68 68 126 135 143 167 l28
52 -20 44 c-24 56 -96 135 -138 152 -18 8 -49 14 -69 14 -50 0 -96 24 -143 75
-31 34 -45 62 -66 132 -41 139 -69 186 -180 298 -89 89 -112 107 -205 153
-126 63 -206 82 -355 81 -82 0 -133 -6 -201 -23z m611 -261 c43 -30 103 -83
133 -117 61 -70 128 -166 120 -173 -2 -3 -43 40 -91 94 -78 90 -131 140 -237
223 -65 50 -6 29 75 -27z m-61 -27 c28 -18 70 -48 94 -66 45 -37 138 -154 167
-212 17 -35 17 -35 -3 -15 -10 11 -56 62 -102 113 -45 51 -116 118 -156 149
-41 30 -74 57 -74 59 0 11 29 0 74 -28z m-19 -54 c72 -47 152 -127 196 -194
50 -77 56 -104 11 -51 -52 62 -167 179 -231 234 -63 56 -51 61 24 11z m-39
-43 c75 -50 184 -163 213 -219 12 -24 21 -46 18 -48 -2 -2 -26 23 -53 57 -27
34 -56 66 -65 73 -33 23 -190 176 -181 176 5 0 36 -18 68 -39z m-58 -30 c83
-43 242 -215 242 -262 0 -8 -19 9 -42 36 -44 53 -147 155 -212 211 -45 39 -42
43 12 15z m-28 -51 c53 -27 152 -120 190 -180 55 -85 28 -74 -59 25 -46 52
-87 95 -90 95 -10 1 -97 80 -88 80 4 0 25 -9 47 -20z m-9 -58 c56 -36 95 -75
143 -145 61 -88 37 -88 -37 1 -37 45 -92 100 -122 123 -30 23 -55 43 -55 45 0
12 31 1 71 -24z m-40 -41 c71 -46 179 -173 167 -199 -2 -4 -54 46 -117 111
-63 64 -110 117 -105 117 6 0 30 -13 55 -29z m21 -90 c45 -40 108 -124 108
-145 0 -5 -47 37 -105 94 -58 58 -105 108 -105 113 0 13 53 -19 102 -62z m864
-163 c36 -32 71 -94 59 -106 -6 -7 -65 48 -107 101 -27 34 -28 37 -9 37 11 0
37 -15 57 -32z m-367 -325 c32 -22 76 -75 89 -105 7 -15 -20 -8 -50 13 -30 22
-88 94 -88 111 0 13 10 10 49 -19z"/>
<path d="M2113 2094 c-216 -190 -399 -371 -417 -415 -7 -19 -17 -84 -21 -146
-9 -139 4 -202 47 -238 27 -23 38 -25 116 -25 169 1 224 40 236 170 10 115 29
143 253 370 178 182 210 220 184 220 -4 0 -45 -36 -91 -81 -114 -109 -206
-188 -194 -167 5 9 65 76 133 148 l123 130 -55 57 -55 57 -77 -70 c-42 -38
-93 -81 -112 -96 -136 -104 -378 -332 -398 -374 -10 -21 -18 -76 -22 -149 -8
-151 -23 -128 -23 36 l0 126 48 65 c46 63 202 216 416 408 100 90 114 109 89
117 -6 2 -87 -62 -180 -143z"/>
</g>
</svg>
